<svg width="94" height="42" viewBox="0 0 94 42" fill="none" xmlns="http://www.w3.org/2000/svg">
<g id="Group 1">
<g id="Group">
<path id="Vector" d="M0.686752 21.8298C0.603941 21.9569 0.686752 22.4242 0.894415 22.8989V21.4984C0.811604 21.6355 0.741534 21.7464 0.686752 21.8298Z" fill="#EC1C24"/>
<path id="Vector_2" d="M9.35645 11.2663C9.34753 11.27 9.33734 11.2713 9.32715 11.275C9.32715 11.2738 9.32715 11.2713 9.32842 11.2713C9.33734 11.27 9.34753 11.2675 9.35645 11.2663Z" fill="#EC1C24"/>
<path id="Vector_3" d="M63.1219 25.5678C62.8951 25.6064 62.662 25.6251 62.4199 25.6251H61.0312V25.5952C61.7281 25.5865 62.425 25.5778 63.1219 25.5678Z" fill="url(#paint0_linear_395_1173)"/>
<path id="Vector_4" d="M60.9128 18.0383H61.0313V17.8887C60.9906 17.9373 60.9485 17.9872 60.9128 18.0383ZM60.9128 18.0383H61.0313V17.8887C60.9906 17.9373 60.9485 17.9872 60.9128 18.0383Z" fill="url(#paint1_linear_395_1173)"/>
<g id="Group_2">
<path id="Vector_5" d="M92.1618 13.7184C92.1592 13.8181 92.1528 13.9165 92.1414 14.0149C92.1528 13.9153 92.1592 13.8168 92.1618 13.7184Z" fill="url(#paint2_linear_395_1173)"/>
<path id="Vector_6" d="M92.1618 13.7184C92.1644 13.62 92.1631 13.5203 92.1567 13.4219C92.1618 13.5203 92.1644 13.6187 92.1618 13.7184Z" fill="url(#paint3_linear_395_1173)"/>
<path id="Vector_7" d="M92.1618 13.7184C92.1592 13.8181 92.1528 13.9165 92.1414 14.0149C92.1528 13.9153 92.1592 13.8168 92.1618 13.7184Z" fill="url(#paint4_linear_395_1173)"/>
<path id="Vector_8" d="M92.1618 13.7184C92.1644 13.62 92.1631 13.5203 92.1567 13.4219C92.1618 13.5203 92.1644 13.6187 92.1618 13.7184Z" fill="url(#paint5_linear_395_1173)"/>
<path id="Vector_9" d="M92.1618 13.7184C92.1644 13.62 92.1631 13.5203 92.1567 13.4219C92.1618 13.5203 92.1644 13.6187 92.1618 13.7184Z" fill="url(#paint6_linear_395_1173)"/>
<path id="Vector_10" d="M92.1414 14.0137C92.1528 13.9153 92.1592 13.8168 92.1618 13.7172C92.1592 13.8168 92.1528 13.9165 92.1414 14.0137Z" fill="url(#paint7_linear_395_1173)"/>
<path id="Vector_11" d="M88.6735 6.55767C88.6735 6.55268 88.6722 6.54895 88.6722 6.54396C88.6722 6.54396 88.6722 6.52901 88.6722 6.50409C88.6709 6.52153 88.6709 6.53898 88.6735 6.55767Z" fill="url(#paint8_linear_395_1173)"/>
</g>
</g>
<path id="Vector_12" d="M90.9028 2.96173H88.4962V0.608046C88.4962 0.272873 88.2185 0 87.8745 0H84.2372C83.8945 0 83.6155 0.271627 83.6155 0.608046V2.96173H81.2089C80.8662 2.96173 80.5872 3.23336 80.5872 3.56978V7.12709C80.5872 7.46226 80.8649 7.73514 81.2089 7.73514H83.6155V10.0888C83.6155 10.424 83.8932 10.6969 84.2372 10.6969H87.8745C88.2172 10.6969 88.4962 10.4252 88.4962 10.0888V7.73389H90.9028C91.2455 7.73389 91.5245 7.46226 91.5245 7.12585V3.56853C91.5245 3.23336 91.2455 2.96173 90.9028 2.96173ZM86.6922 7.05233C86.4985 7.13208 86.2922 7.19811 86.0718 7.24546C85.8514 7.19811 85.6437 7.13208 85.4513 7.05233C83.3492 6.18014 82.8205 3.91492 84.4678 3.49751C85.1723 3.31933 85.7112 3.67818 86.0718 3.96226C86.4323 3.67693 86.9636 3.35173 87.6757 3.49751C89.2517 3.81897 88.7943 6.18014 86.6922 7.05233Z" fill="#C6222A"/>
<g id="Group_3">
<g id="Group_4">
<path id="Vector_13" d="M9.35621 11.2663C9.34729 11.2675 9.3371 11.27 9.32818 11.2713C9.3269 11.2713 9.3269 11.2725 9.3269 11.275C9.3371 11.2713 9.34729 11.27 9.35621 11.2663Z" fill="#F09239"/>
<g id="Group_5">
<g id="Group_6">
<path id="Vector_14" d="M93.9999 34.691C93.9999 33.4737 93.5859 32.4719 92.7603 31.6844C91.9335 30.8969 90.8875 30.5045 89.6212 30.5045C89.2785 30.5045 89.1065 30.3362 89.1065 30.0011V20.6175C89.1065 18.1417 88.2312 16.0522 86.482 14.3526C84.7328 12.6518 82.5925 11.8033 80.061 11.8033H79.5438V9.50445C79.5438 8.30954 79.1374 7.31773 78.322 6.53026C77.5066 5.74279 76.4849 5.34906 75.2631 5.34906C74.0388 5.34906 73.0247 5.74404 72.2195 6.53026C72.017 6.72838 71.8399 6.9377 71.6895 7.16447C71.5379 6.9377 71.3621 6.72838 71.157 6.53026C70.3544 5.74279 69.3377 5.34906 68.1159 5.34906H58.5545C57.3965 5.34906 56.3976 5.75899 55.5606 6.57761C54.7236 7.39623 54.3044 8.37184 54.3044 9.5057V13.0344V30.7736C54.307 30.7698 54.3095 30.7661 54.3108 30.7624C54.3108 30.8147 54.3044 30.8645 54.3044 30.9169C54.3044 32.1143 54.7083 33.1036 55.5122 33.8911C56.3174 34.6785 57.3302 35.0723 58.5533 35.0723H62.4173C65.3144 35.0723 67.7605 34.1004 69.7569 32.1604C70.2346 31.6969 70.6512 31.2072 71.013 30.6951V30.9169C71.013 32.1143 71.4143 33.1036 72.2195 33.8911C73.0247 34.6785 74.0388 35.0723 75.2631 35.0723C76.4849 35.0723 77.5066 34.6773 78.322 33.8911C79.1374 33.1036 79.5438 32.113 79.5438 30.9169V26.1921C79.8597 25.9977 80.2216 25.7423 80.5477 25.442L80.5732 33.1522C80.5732 35.6716 81.4535 37.7748 83.2142 39.4657C84.9736 41.154 87.1522 42 89.7486 42C90.9729 42 91.987 41.6075 92.7922 40.82C93.5973 40.0326 93.9987 39.0408 93.9987 37.8434C93.9987 37.2777 93.9031 36.7519 93.7082 36.2709C93.9044 35.7837 93.9999 35.2592 93.9999 34.691ZM68.279 27.5602C66.6891 29.1027 64.736 29.8752 62.4199 29.8752H58.5558C57.9124 29.8752 57.3926 29.6809 56.9951 29.2934C56.5964 28.9058 56.3976 28.395 56.3976 27.7658C56.3976 27.1365 56.5964 26.6232 56.9951 26.2232C57.3646 25.8507 57.8436 25.6525 58.4284 25.6276C58.4628 25.6276 58.4972 25.6276 58.5329 25.6264H58.6373C59.4336 25.6152 60.2324 25.6064 61.0299 25.5965C61.7268 25.5878 62.4237 25.5803 63.1206 25.5691C64.2672 25.5554 65.4151 25.5404 66.5617 25.5267C66.7107 25.523 66.8598 25.5217 67.0076 25.5205C67.042 25.1031 67.0139 24.5685 66.6763 24.3256C66.6368 24.2969 66.5986 24.277 66.5617 24.2633C66.3922 24.1972 66.2075 24.2408 65.8036 24.186C65.7437 24.1773 65.6456 24.1636 65.5233 24.1387C65.1908 24.0714 64.6774 23.9219 64.2175 23.5792C63.8225 23.2877 63.5996 22.9475 63.4161 22.6734C63.2097 22.3631 63.0785 22.079 62.9944 21.8672C63.5295 21.6218 63.9296 21.4934 64.2353 21.4261C64.4022 21.3912 65.0609 21.2567 65.4316 20.7446C65.4456 20.7221 65.6062 20.4929 65.6431 20.2748C65.6431 20.2748 65.6431 20.2748 65.6431 20.2736C65.6571 20.1864 65.652 20.0979 65.6074 20.0281C65.5272 19.906 65.4036 19.9322 65.2813 19.8026C65.1029 19.6095 65.1666 19.3279 65.1666 19.1559V19.1497C65.1666 18.9616 65.0864 18.7236 64.8048 18.4308C64.6621 18.285 64.4723 18.1255 64.2111 17.956C64.2391 17.7766 64.2659 17.5972 64.2939 17.4178C64.3169 17.2633 64.3398 17.11 64.3627 16.9567C64.2634 16.963 64.1003 16.9817 63.9143 17.0477C63.6072 17.1648 63.3652 17.5374 63.2798 17.495C63.276 17.495 63.276 17.4913 63.2734 17.49C63.239 17.4713 63.2123 17.4078 63.2276 17.2396C63.2365 17.1387 63.3766 16.7923 63.4225 16.6016C63.0174 16.6565 62.295 16.8209 61.6083 17.3418C61.5739 17.3667 61.5433 17.3904 61.5102 17.4178C61.328 17.5673 61.1701 17.7255 61.0325 17.89C60.7471 18.2638 59.9572 18.6413 59.5342 18.6476L58.5584 18.6712C57.9787 18.6712 57.4754 18.4594 57.0461 18.0395C56.6155 17.6196 56.4002 16.4957 56.4002 15.93V9.50445C56.4002 8.93877 56.6142 8.44536 57.0461 8.02546C57.4754 7.60556 57.9787 7.39623 58.5584 7.39623H68.1198C68.7631 7.39623 69.2829 7.5906 69.6817 7.97686C70.0779 8.36686 70.2767 8.87523 70.2767 9.50445C70.2767 10.9324 69.5568 11.6463 68.1198 11.6463H60.7484V13.7869H62.4224C64.7615 13.7869 66.7196 14.5595 68.2969 16.102C69.8741 17.6445 70.6614 19.5596 70.6614 21.8473C70.6601 24.1125 69.8664 26.0176 68.279 27.5602ZM80.5885 20.9527C80.3375 20.9527 80.1336 20.7558 80.1336 20.5116C80.1336 20.2661 80.3375 20.0668 80.5885 20.0668C80.8394 20.0668 81.042 20.2661 81.042 20.5116C81.042 20.7558 80.8394 20.9527 80.5885 20.9527ZM91.3131 36.2186C90.9168 36.6061 90.3945 36.8005 89.7511 36.8005H89.6224C87.649 36.8005 85.9954 36.1513 84.6653 34.848C83.334 33.5472 82.6689 31.9311 82.6689 29.9998L82.6383 21.2579L82.6422 21.2542C83.3429 20.6212 84.3162 20.6798 84.3124 20.5091C84.3086 20.3409 83.3913 20.4742 82.7199 19.8774C82.3644 19.5634 82.4027 19.3316 81.9899 18.9204C81.8612 18.7909 81.7262 18.6825 81.5911 18.5915C81.5898 18.5903 81.5873 18.5878 81.586 18.5865C81.1452 18.2613 80.6369 18.0968 80.0623 18.0968C79.331 18.0968 78.7144 18.3398 78.2099 18.822C77.7054 19.3055 77.4544 19.9035 77.4544 20.6162V21.7912H74.6949C74.6936 21.8136 74.6911 21.846 74.6949 21.8847C74.7357 22.5849 75.7383 23.031 75.8874 23.0983C76.4671 23.3562 77.0442 23.3437 77.4544 23.2764V23.5069H75.5116C75.5103 23.5294 75.5077 23.5618 75.5116 23.5991C75.5549 24.3006 76.555 24.7467 76.704 24.814C76.9601 24.9286 77.2136 24.9884 77.4544 25.0158V27.7633C77.4544 28.3925 77.248 28.9034 76.8416 29.2909C76.4327 29.6784 75.9078 29.8727 75.2644 29.8727C74.6185 29.8727 74.0987 29.6784 73.7025 29.2909C73.3062 28.9034 73.1075 28.3925 73.1075 27.7633V9.50445C73.1075 8.87523 73.3062 8.36686 73.7025 7.97686C74.0987 7.5906 74.6185 7.39623 75.2644 7.39623C75.9078 7.39623 76.4327 7.5906 76.8416 7.97686C77.248 8.36686 77.4544 8.87523 77.4544 9.50445V14.3215C78.2685 14.0062 79.1386 13.8492 80.061 13.8492C82.0345 13.8492 83.6881 14.4934 85.0182 15.7843C86.3483 17.0751 87.0146 18.6862 87.0146 20.6175V30.0011C87.0146 30.715 87.2668 31.3168 87.7713 31.8103C88.2745 32.3037 88.8924 32.5504 89.6212 32.5504H89.7498C90.3932 32.5504 90.9156 32.7497 91.3118 33.1485C91.708 33.5484 91.9067 34.0618 91.9067 34.691C91.908 35.3215 91.7093 35.8311 91.3131 36.2186Z" fill="#F09239"/>
</g>
</g>
</g>
</g>
<path id="Vector_15" d="M51.9858 11.9117C51.7603 11.8806 51.5259 11.8656 51.2826 11.8656H46.0031C45.8935 10.753 45.4387 9.8409 44.6335 9.1257C43.8309 8.41174 42.8588 8.05663 41.7212 8.05663C40.4968 8.05663 39.4827 8.45411 38.6776 9.25154C37.8749 10.0502 37.4711 11.0458 37.4711 12.2432V14.8971C36.9704 14.3327 36.3079 13.8156 35.4747 13.3459C33.672 12.3167 31.8158 11.8033 29.9047 11.8033C26.9873 11.8033 24.5399 12.7665 22.5652 14.699C21.7154 15.5301 21.0491 16.4459 20.565 17.4502C20.5484 17.3094 20.5268 17.1686 20.5039 17.029C20.5892 16.5032 20.6338 15.9699 20.6338 15.4242C20.6338 12.5684 19.6401 10.1773 17.6565 8.24478C15.6703 6.31473 13.2178 5.34784 10.3003 5.34784C7.38032 5.34784 4.93295 6.31473 2.95952 8.24478C0.984807 10.1773 0 12.5696 0 15.4242V30.9144C0 32.0894 0.406408 33.075 1.22177 33.8736C2.03841 34.6711 3.04615 35.0711 4.24881 35.0711C5.47058 35.0711 6.48979 34.6761 7.30515 33.8898C8.12179 33.1024 8.52947 32.1118 8.52947 30.9157V28.3327C9.08749 28.5645 9.67735 28.6803 10.3003 28.6803C13.1974 28.6803 15.6435 27.7047 17.6399 25.7523C18.5011 24.9075 19.1776 23.9817 19.6668 22.9737C19.6859 23.1332 19.7063 23.2939 19.7344 23.4521C19.6465 23.978 19.6044 24.5025 19.6044 25.0271C19.6044 27.8829 20.5969 30.279 22.5818 32.2215C24.5679 34.1615 27.0077 35.1334 29.906 35.1334H32.7725C33.9969 35.1334 35.0084 34.7334 35.8136 33.9384C36.6188 33.1398 37.0201 32.1417 37.0201 30.9456C37.0201 30.3998 36.9245 29.8765 36.7296 29.3731C36.9232 28.8672 37.0201 28.3439 37.0201 27.7982C37.0201 26.7491 36.699 25.8457 36.0557 25.0906C36.485 24.6495 36.7831 24.3455 36.9564 24.1773C37.1449 24.0278 37.3156 23.8733 37.4711 23.7126V26.2232C37.4711 28.7215 38.3399 30.8197 40.0777 32.5193C41.8167 34.22 43.9621 35.0711 46.5178 35.0711C49.0492 35.0711 51.1845 34.2151 52.9235 32.5043C52.9273 32.5006 52.9311 32.4968 52.935 32.4918C53.6191 31.8153 53.9911 30.8945 53.9911 29.9438V14.2006C53.9911 13.0593 53.1426 12.0712 51.9858 11.9117ZM0.657387 21.9358C0.661209 21.8897 0.671401 21.8548 0.686689 21.8299C0.700703 21.8087 0.714717 21.7863 0.73128 21.7613C0.715991 21.7863 0.700703 21.8087 0.686689 21.8299C0.671401 21.8535 0.661209 21.8897 0.657387 21.9358ZM0.894352 22.8989C0.816638 22.7207 0.75676 22.5438 0.715991 22.3856C0.755486 22.5438 0.816638 22.7207 0.894352 22.8989ZM7.95872 17.4589C7.49498 16.9904 7.30133 16.2715 7.41217 15.4354C7.42363 15.3494 7.5039 15.2896 7.5918 15.3008C7.67971 15.3121 7.74086 15.3906 7.7294 15.4765C7.6313 16.2154 7.79437 16.8421 8.18804 17.2421C8.52437 17.5823 9.0085 17.733 9.5869 17.6782C10.1793 17.6221 10.6201 17.3555 10.7985 16.9456C10.9959 16.4895 10.8533 15.9139 10.4074 15.3656C9.55887 14.3215 9.90795 12.9497 9.92323 12.8911C9.94489 12.8076 10.0328 12.7565 10.1182 12.779C10.2035 12.8001 10.2557 12.8861 10.2328 12.9696C10.229 12.9821 9.90922 14.2505 10.6571 15.1713C11.1781 15.813 11.3361 16.5045 11.0915 17.0689C10.8673 17.5872 10.3296 17.9224 9.6162 17.9897C9.52829 17.9984 9.44039 18.0022 9.3563 18.0022C8.79319 18.0022 8.31289 17.8165 7.95872 17.4589ZM16.1761 21.1707C15.5123 21.8186 14.7823 22.3308 13.9848 22.707C12.8955 23.2204 11.5986 23.9057 10.3016 23.4845C10.0838 23.4135 9.60473 23.2515 9.234 22.7968C8.77408 22.2311 8.78427 21.5869 8.79574 21.3963C8.80593 21.2181 8.85689 20.3571 9.55505 19.911C10.1768 19.5123 10.917 19.6967 11.0252 19.7229C11.4024 19.8163 11.5629 19.911 11.7922 20.002C11.9005 20.0456 12.3375 20.3097 12.4228 20.2599C12.4407 20.2537 12.456 20.2487 12.4738 20.2425C13.1363 20.3185 14.5746 20.3397 15.8053 19.3852C17.3532 18.1828 17.8769 16.0185 17.0704 14.0511C16.9163 13.6736 16.4971 13.4692 16.0932 13.5677C15.9365 13.5789 15.7824 13.5839 15.6321 13.5839C15.4881 13.5839 15.3467 13.5764 15.2053 13.5664C15.1326 13.5452 14.4077 13.3259 13.5936 12.6656C13.0713 12.2419 12.4853 11.8993 11.8419 11.69C10.9858 11.4121 9.83278 11.2539 8.65687 11.746C8.6556 11.746 8.65432 11.7473 8.65305 11.7473C8.05682 11.974 7.52938 12.369 7.14463 12.9758C6.68981 13.6923 6.43628 14.5807 6.43628 15.4254V27.767C6.43628 28.3963 6.23244 28.9071 5.82476 29.2946C5.4158 29.6821 4.89091 29.8765 4.24754 29.8765C3.62455 29.8765 3.1073 29.6746 2.70089 29.2772C2.29449 28.8797 2.08937 28.3763 2.08937 27.767V15.4254C2.08937 13.1378 2.87161 11.2252 4.43864 9.69512C6.00694 8.1613 7.96254 7.39626 10.3016 7.39626C12.6394 7.39626 14.5976 8.1613 16.1761 9.69387C17.7533 11.2252 18.5406 13.1366 18.5406 15.4242C18.5419 17.7106 17.7533 19.6282 16.1761 21.1707ZM12.3642 13.4244C12.3642 13.1714 12.5732 12.9671 12.8318 12.9671C13.0904 12.9671 13.2994 13.1714 13.2994 13.4244C13.2994 13.6773 13.0904 13.8817 12.8318 13.8817C12.5744 13.8817 12.3642 13.6773 12.3642 13.4244ZM15.6346 14.0474C15.6346 13.8642 15.8983 13.7147 16.2245 13.7147C16.5506 13.7147 16.8169 13.8642 16.8169 14.0474C16.8169 14.2305 16.5506 14.3801 16.2245 14.3801C15.8983 14.3801 15.6346 14.2305 15.6346 14.0474ZM35.5728 19.4849L31.4501 23.421C30.9787 23.8608 30.473 24.0826 29.9379 24.0826C29.3365 24.0826 28.8155 23.8608 28.3759 23.421C27.9364 22.9799 27.7173 22.4653 27.7173 21.8785C27.7173 21.3526 27.953 20.8592 28.4244 20.3982L30.743 18.1629C30.4628 18.1205 30.1838 18.0994 29.906 18.0994C28.832 18.0994 27.9224 18.4682 27.1707 19.2021C26.4191 19.9372 26.0445 20.8306 26.0445 21.8797C26.0445 22.9288 26.4191 23.8247 27.1707 24.5723C27.9224 25.3162 28.832 25.6887 29.906 25.6887H32.7725C33.4159 25.6887 33.9344 25.8831 34.3332 26.2706C34.7294 26.6581 34.9294 27.169 34.9294 27.7982C34.9294 28.4274 34.7307 28.9432 34.3332 29.3407C33.9344 29.7382 33.4172 29.9388 32.7725 29.9388H29.906C27.5669 29.9388 25.6139 29.1688 24.0481 27.6262C22.4798 26.0837 21.6963 24.1661 21.6963 21.8809C21.6963 19.5933 22.4786 17.6832 24.0481 16.1506C25.6139 14.618 27.5669 13.853 29.906 13.853C32.2451 13.853 34.2313 14.6704 35.862 16.3089C36.2913 16.7487 36.5054 17.2321 36.5054 17.7555C36.5054 18.4457 36.1945 19.0239 35.5728 19.4849ZM44.6667 24.885C45.1712 25.3785 45.7878 25.6252 46.5191 25.6252C47.2465 25.6252 47.8593 25.3785 48.3536 24.885C48.8467 24.3916 49.0938 23.7886 49.0938 23.0734V22.7918C49.0938 22.1825 49.3028 21.6791 49.7219 21.2791C50.1411 20.8817 50.6609 20.6811 51.2838 20.6811C51.903 20.6811 52.4203 20.8804 52.8267 21.2791C53.2369 21.6791 53.4395 22.1825 53.4395 22.7918V23.0734C53.4395 25.0059 52.7783 26.622 51.4609 27.9228C50.1411 29.2236 48.4938 29.8753 46.5191 29.8753C44.5214 29.8753 42.8627 29.2286 41.5428 27.9402C40.2229 26.6494 39.5643 25.0258 39.5643 23.0734V12.2432C39.5643 11.6139 39.7617 11.0981 40.1605 10.7006C40.5567 10.3032 41.0791 10.1026 41.7224 10.1026C42.3658 10.1026 42.8907 10.3019 43.2996 10.7006C43.7061 11.0981 43.9112 11.6139 43.9112 12.2432V13.9116H51.2851C51.9272 13.9116 52.447 14.1059 52.8458 14.4934C53.242 14.8834 53.4407 15.3918 53.4407 16.0198C53.4407 17.4502 52.7222 18.1617 51.2851 18.1617H43.9112V23.0734C43.9086 23.7886 44.1609 24.3916 44.6667 24.885Z" fill="#C6222A"/>
<g id="Group_7">
<g id="Group_8">
<path id="Vector_16" d="M2.07784 40.1036H1.80903L0.684082 37.2552H0.987295L1.94917 39.751L2.91614 37.2552H3.21171L2.07784 40.1036Z" fill="#F09239"/>
<path id="Vector_17" d="M3.96199 37.7212L3.23071 37.3101L3.3492 37.0783L4.08175 37.4995L3.96199 37.7212ZM3.69063 40.1036V37.9991H3.94925V40.1036H3.69063Z" fill="#F09239"/>
<path id="Vector_18" d="M6.32913 40.1547C6.14949 40.1547 6.00043 40.0936 5.8845 39.9703C5.76857 39.8482 5.70996 39.6924 5.70996 39.5043V39.4793H5.96731C5.97241 39.7672 6.09344 39.9117 6.32913 39.9117C6.58011 39.9117 6.70496 39.7859 6.70496 39.5342C6.70496 39.4108 6.65655 39.3136 6.55845 39.2414C6.52023 39.2127 6.46927 39.184 6.40684 39.1566L6.23613 39.0869C6.16351 39.0582 6.10618 39.032 6.06286 39.0096C6.00298 38.9772 5.9533 38.9423 5.9138 38.9049C5.81698 38.8127 5.76729 38.6869 5.76729 38.5286C5.76729 38.3567 5.82207 38.2171 5.93164 38.1075C6.03993 37.9979 6.17625 37.9443 6.34187 37.9443C6.4973 37.9443 6.62725 37.9991 6.73299 38.11C6.83873 38.2209 6.89096 38.3567 6.89096 38.5174H6.63362C6.62088 38.2969 6.52023 38.1872 6.3304 38.1872C6.12656 38.1872 6.02464 38.2919 6.02464 38.5025C6.02464 38.6071 6.07305 38.6919 6.17115 38.7542C6.2081 38.7778 6.25906 38.8028 6.32276 38.8277L6.3648 38.8451C6.37499 38.8489 6.38901 38.8551 6.40812 38.8626L6.49475 38.8962C6.56482 38.9249 6.62215 38.9523 6.66801 38.9785C6.72789 39.0121 6.77758 39.0507 6.81707 39.0931C6.9139 39.1965 6.96358 39.3373 6.96358 39.5117C6.96358 39.9404 6.7521 40.1547 6.32913 40.1547Z" fill="#F09239"/>
<path id="Vector_19" d="M9.25172 38.3118V40.1048H9.00838V39.7784H9.00074C8.94468 39.9017 8.85423 39.9977 8.73192 40.0637C8.61981 40.1248 8.49369 40.1559 8.35354 40.1559C8.05033 40.1559 7.81974 40.0513 7.66049 39.8407C7.59424 39.7535 7.5471 39.6463 7.5178 39.5192C7.49486 39.417 7.4834 39.2974 7.4834 39.1616V38.0003H7.74075V39.1579C7.74075 39.3934 7.78534 39.574 7.87452 39.6986C7.97644 39.8419 8.13569 39.9129 8.35354 39.9129C8.52426 39.9129 8.66695 39.8556 8.78161 39.7422C8.86315 39.6613 8.92048 39.5641 8.95233 39.4532C8.97908 39.3647 8.99182 39.2513 8.99182 39.113V38.0003H9.24917V38.0626C9.25172 38.0602 9.25427 38.0577 9.25809 38.0552C9.3014 38.019 9.32561 37.9742 9.33198 37.9218H9.22242V37.5829H9.53964V37.9318C9.53073 37.9929 9.51671 38.044 9.4976 38.0851C9.47722 38.1262 9.45429 38.1598 9.42498 38.1872C9.39696 38.2147 9.37148 38.2358 9.34982 38.252C9.32816 38.2682 9.29504 38.2882 9.25172 38.3131V38.3118ZM8.17136 37.7212L8.04906 37.4995L8.78416 37.0783L8.90137 37.3101L8.17136 37.7212Z" fill="#F09239"/>
<path id="Vector_20" d="M11.9438 39.4844C11.726 39.9317 11.3922 40.1547 10.9399 40.1547C10.6392 40.1547 10.3844 40.05 10.1742 39.8395C9.96146 39.6264 9.85571 39.3647 9.85571 39.0545C9.85571 38.7467 9.96273 38.4838 10.1768 38.267C10.3895 38.0527 10.6443 37.9456 10.9399 37.9456C11.1616 37.9456 11.3629 38.0066 11.5438 38.1275C11.7285 38.2533 11.8623 38.4215 11.9438 38.6346H11.6597C11.5094 38.3368 11.2724 38.1873 10.9488 38.1873C10.7169 38.1873 10.5207 38.2695 10.3602 38.4352C10.1971 38.6009 10.1156 38.804 10.1156 39.0458C10.1156 39.29 10.1959 39.4956 10.3564 39.6625C10.5169 39.8295 10.7144 39.913 10.9488 39.913C11.2813 39.913 11.5183 39.7697 11.6597 39.4844H11.9438Z" fill="#F09239"/>
<path id="Vector_21" d="M15.0319 40.1036L14.3694 39.2725L14.0432 39.7024V40.1023H13.7859V37.2552H14.0432V39.285H14.0509L14.9924 37.9991H15.3236L14.5274 39.0607L15.3644 40.1036H15.0319Z" fill="#F09239"/>
<path id="Vector_22" d="M17.3303 40.1036V38.9461C17.3303 38.8339 17.3163 38.7293 17.287 38.6346C17.2552 38.5237 17.2042 38.434 17.138 38.3679C17.0157 38.2471 16.8691 38.1873 16.6997 38.1873C16.529 38.1873 16.3825 38.2471 16.2602 38.3679C16.1939 38.4327 16.1455 38.5199 16.1124 38.6271C16.0844 38.7193 16.0703 38.819 16.0703 38.9261V40.1048H15.813V37.2552H16.0703V38.2682H16.078C16.2118 38.0527 16.4181 37.9455 16.6997 37.9455C16.9813 37.9455 17.2017 38.039 17.3609 38.2271C17.5125 38.4078 17.5877 38.647 17.5877 38.9473V40.1048H17.3303V40.1036Z" fill="#F09239"/>
<path id="Vector_23" d="M19.9954 39.8282C19.7877 40.0463 19.5393 40.1547 19.2501 40.1547C18.966 40.1547 18.7188 40.0475 18.5112 39.832C18.3022 39.6164 18.1978 39.361 18.1978 39.0657C18.1978 38.7604 18.2997 38.4975 18.5035 38.2782C18.7086 38.0564 18.9571 37.9455 19.2488 37.9455C19.5355 37.9455 19.7839 38.0539 19.9928 38.272C20.2018 38.49 20.3062 38.7492 20.3062 39.0495C20.3075 39.3523 20.203 39.6114 19.9954 39.8282ZM19.817 38.4414C19.6603 38.272 19.473 38.1873 19.2539 38.1873C19.0284 38.1873 18.8373 38.2745 18.6831 38.4502C18.5315 38.6209 18.4564 38.824 18.4564 39.0607C18.4564 39.2912 18.5341 39.4906 18.6882 39.6588C18.8449 39.8282 19.0322 39.913 19.2539 39.913C19.482 39.913 19.6731 39.827 19.8272 39.6538C19.9763 39.4843 20.0502 39.28 20.0502 39.0395C20.0502 38.8078 19.9724 38.6097 19.817 38.4414ZM19.603 37.3948C19.5941 37.4085 19.5813 37.426 19.5609 37.4471L19.538 37.4733L19.4641 37.5481C19.4501 37.5655 19.4361 37.5842 19.4221 37.6041C19.4004 37.6378 19.3877 37.6926 19.3839 37.7674H19.1545V37.7163C19.1545 37.6527 19.1711 37.5904 19.2055 37.5306C19.2157 37.5132 19.231 37.4908 19.2539 37.4633C19.2641 37.4521 19.2794 37.4359 19.301 37.4148L19.3495 37.3662C19.3647 37.3487 19.38 37.3313 19.3928 37.3138C19.4119 37.2864 19.4221 37.2553 19.4221 37.2216C19.4221 37.1693 19.4068 37.1282 19.3749 37.097C19.3405 37.0634 19.3036 37.0459 19.2654 37.0459C19.2106 37.0459 19.166 37.0721 19.1316 37.1244C19.1201 37.1431 19.1112 37.1643 19.1087 37.188C19.1061 37.2017 19.1048 37.2403 19.1048 37.3026H18.873V37.2291C18.873 37.1282 18.9137 37.0372 18.994 36.9587C19.0679 36.8877 19.1609 36.8516 19.2692 36.8516C19.3813 36.8516 19.4718 36.8864 19.5406 36.9562C19.6144 37.0322 19.6527 37.1219 19.6527 37.2229C19.6527 37.2827 19.6361 37.34 19.603 37.3948Z" fill="#F09239"/>
<path id="Vector_24" d="M22.9065 39.1492H21.0694C21.0796 39.356 21.1624 39.5354 21.3204 39.6862C21.4771 39.837 21.6542 39.9117 21.8542 39.9117C22.0121 39.9117 22.1574 39.8681 22.2899 39.7797C22.4262 39.6887 22.5218 39.5666 22.5765 39.4133H22.8504C22.7766 39.6339 22.6479 39.812 22.4644 39.9491C22.2822 40.0862 22.0797 40.1535 21.8567 40.1535C21.5662 40.1535 21.3178 40.0451 21.1114 39.8282C20.9076 39.6139 20.8057 39.3548 20.8057 39.052C20.8057 38.7505 20.9076 38.49 21.1114 38.272C21.3178 38.0527 21.565 37.9431 21.8542 37.9431C22.1472 37.9431 22.3969 38.0552 22.6033 38.2795C22.8084 38.5013 22.9116 38.7654 22.9116 39.0707L22.9065 39.1492ZM22.6453 38.9075C22.6122 38.6994 22.5218 38.5274 22.3765 38.3929C22.23 38.2558 22.0567 38.1885 21.8554 38.1885C21.6567 38.1885 21.4822 38.257 21.3344 38.3929C21.1891 38.5287 21.1 38.6994 21.0681 38.9075H22.6453Z" fill="#F09239"/>
<path id="Vector_25" d="M27.0152 40.151L26.3922 39.5155C26.2928 39.7149 26.1833 39.8644 26.0661 39.9641C25.9221 40.0874 25.7539 40.1497 25.5616 40.1497C25.3284 40.1497 25.1284 40.0662 24.9602 39.898C24.7882 39.7273 24.7029 39.5217 24.7029 39.28C24.7029 39.0807 24.7653 38.9062 24.8889 38.7555C24.9934 38.6309 25.1411 38.5225 25.3335 38.4327C25.2341 38.3318 25.1628 38.2434 25.1195 38.1674C25.0583 38.0639 25.0278 37.953 25.0278 37.8372C25.0278 37.6565 25.0953 37.5057 25.229 37.3824C25.3577 37.2652 25.5093 37.2054 25.6851 37.2054C25.861 37.2054 26.0126 37.2702 26.1412 37.3986C26.2725 37.5306 26.3374 37.6876 26.3374 37.8708C26.3374 38.0216 26.2826 38.1574 26.1731 38.2782C26.0763 38.3842 25.9527 38.4639 25.8062 38.5162L26.3234 39.0483L26.7209 38.2483H27.0267L26.5222 39.2514L27.2114 39.9529L27.0152 40.151ZM25.5297 38.6383C25.3756 38.6932 25.2494 38.7754 25.1501 38.8826C25.0354 39.0059 24.9768 39.143 24.9768 39.2962C24.9768 39.4545 25.0328 39.5915 25.1437 39.7074C25.2571 39.8233 25.3883 39.8806 25.5399 39.8806C25.6915 39.8806 25.824 39.8208 25.9374 39.6999C25.9845 39.6513 26.0304 39.5903 26.0737 39.518C26.1056 39.4644 26.1425 39.3947 26.1833 39.3112L25.5297 38.6383ZM25.9476 37.5767C25.8737 37.5095 25.7858 37.4758 25.6813 37.4758C25.5819 37.4758 25.494 37.5095 25.4189 37.5755C25.3412 37.6453 25.3017 37.7325 25.3017 37.8347C25.3017 37.9206 25.3361 38.0116 25.4061 38.1051C25.4342 38.1412 25.4673 38.1798 25.5068 38.2197C25.5348 38.2471 25.5692 38.2807 25.6112 38.3194C25.6788 38.292 25.7323 38.2683 25.7718 38.2483C25.8304 38.2197 25.8788 38.1885 25.9183 38.1561C26.0164 38.0751 26.0661 37.9717 26.0661 37.8459C26.0648 37.7362 26.0253 37.6465 25.9476 37.5767Z" fill="#F09239"/>
<path id="Vector_26" d="M30.4678 40.1036V38.9461C30.4678 38.8339 30.4538 38.7293 30.4245 38.6346C30.3926 38.5237 30.3417 38.434 30.2754 38.3679C30.1531 38.2471 30.0066 38.1873 29.8371 38.1873C29.6664 38.1873 29.5199 38.2471 29.3976 38.3679C29.3314 38.4327 29.283 38.5199 29.2498 38.6271C29.2218 38.7193 29.2078 38.819 29.2078 38.9261V40.1048H28.9504V37.2552H29.2078V38.2682H29.2154C29.3492 38.0527 29.5556 37.9455 29.8371 37.9455C30.1187 37.9455 30.3391 38.039 30.4984 38.2271C30.65 38.4078 30.7251 38.647 30.7251 38.9473V40.1048H30.4678V40.1036Z" fill="#F09239"/>
<path id="Vector_27" d="M33.2121 40.1036V39.7335H33.2044C33.0261 40.0139 32.7649 40.1547 32.4196 40.1547C32.1164 40.1547 31.8591 40.0488 31.6501 39.8369C31.4399 39.6251 31.3354 39.361 31.3354 39.0457C31.3354 38.733 31.4412 38.4701 31.654 38.2583C31.8642 38.0489 32.119 37.9443 32.4196 37.9443C32.7713 37.9443 33.0337 38.0851 33.2044 38.3667H33.2121V37.9979H33.472V40.1023H33.2121V40.1036ZM32.9955 38.4452C32.8375 38.2732 32.6464 38.1872 32.4196 38.1872C32.1801 38.1872 31.9826 38.2695 31.8272 38.4352C31.6705 38.6009 31.5928 38.8077 31.5928 39.0569C31.5928 39.3024 31.6718 39.5068 31.8285 39.67C31.9852 39.832 32.1827 39.9129 32.4196 39.9129C32.6464 39.9129 32.8388 39.8282 32.9955 39.6588C33.1509 39.4918 33.2273 39.2899 33.2273 39.0532C33.2273 38.8165 33.1509 38.6146 32.9955 38.4452ZM32.2667 40.8275V40.3403H32.5407V40.8275H32.2667Z" fill="#F09239"/>
<path id="Vector_28" d="M35.6607 40.1036V38.9461C35.6607 38.8339 35.6466 38.7293 35.6173 38.6346C35.5855 38.5237 35.5345 38.434 35.4683 38.3679C35.346 38.2471 35.1995 38.1873 35.03 38.1873C34.8593 38.1873 34.7128 38.2471 34.5905 38.3679C34.5242 38.4327 34.4746 38.5199 34.4427 38.6271C34.4147 38.7193 34.4007 38.819 34.4007 38.9261V40.1048H34.1433V38.0004H34.4007V38.2695H34.4083C34.5421 38.0539 34.7485 37.9468 35.03 37.9468C35.3116 37.9468 35.532 38.0402 35.6912 38.2284C35.8428 38.409 35.918 38.6483 35.918 38.9486V40.1061H35.6607V40.1036Z" fill="#F09239"/>
<path id="Vector_29" d="M38.1055 40.1036V38.9461C38.1055 38.8339 38.0915 38.7293 38.0622 38.6346C38.0303 38.5237 37.9793 38.434 37.9131 38.3679C37.7908 38.2471 37.6443 38.1873 37.4748 38.1873C37.3041 38.1873 37.1576 38.2471 37.0353 38.3679C36.9691 38.4327 36.9207 38.5199 36.8875 38.6271C36.8595 38.7193 36.8455 38.819 36.8455 38.9261V40.1048H36.5881V37.2552H36.8455V38.2682H36.8531C36.9869 38.0527 37.1933 37.9455 37.4748 37.9455C37.7564 37.9455 37.9768 38.039 38.1361 38.2271C38.2877 38.4078 38.3628 38.647 38.3628 38.9473V40.1048H38.1055V40.1036Z" fill="#F09239"/>
<path id="Vector_30" d="M42.1021 39.837C41.8932 40.0488 41.6371 40.1547 41.3326 40.1547C40.9924 40.1547 40.73 40.0139 40.5453 39.7336H40.5376V40.8425H40.2803V37.9991H40.5376V38.3679H40.5453C40.7364 38.0864 40.9988 37.9456 41.3326 37.9456C41.6333 37.9456 41.8868 38.0502 42.0957 38.2595C42.3098 38.4714 42.4168 38.7343 42.4168 39.047C42.4181 39.3623 42.3123 39.6252 42.1021 39.837ZM41.9263 38.4352C41.7696 38.2695 41.5721 38.1873 41.3339 38.1873C41.1071 38.1873 40.9147 38.2733 40.758 38.4452C40.6026 38.6147 40.5262 38.8178 40.5262 39.0545C40.5262 39.2912 40.6039 39.4931 40.758 39.66C40.9147 39.8295 41.1071 39.9142 41.3339 39.9142C41.5708 39.9142 41.767 39.8332 41.9225 39.6713C42.0792 39.508 42.1582 39.3037 42.1582 39.0582C42.1582 38.8078 42.0804 38.6009 41.9263 38.4352Z" fill="#F09239"/>
<path id="Vector_31" d="M44.5098 40.1036V38.9461C44.5098 38.8339 44.4958 38.7293 44.4665 38.6346C44.4346 38.5237 44.3836 38.434 44.3174 38.3679C44.1951 38.2471 44.0486 38.1873 43.8791 38.1873C43.7084 38.1873 43.5619 38.2471 43.4396 38.3679C43.3734 38.4327 43.3249 38.5199 43.2918 38.6271C43.2638 38.7193 43.2498 38.819 43.2498 38.9261V40.1048H42.9924V37.2552H43.2498V38.2682H43.2574C43.3912 38.0527 43.5976 37.9455 43.8791 37.9455C44.1607 37.9455 44.3811 38.039 44.5404 38.2271C44.692 38.4078 44.7671 38.647 44.7671 38.9473V40.1048H44.5098V40.1036Z" fill="#F09239"/>
<path id="Vector_32" d="M46.9737 40.1036V39.7771H46.9661C46.91 39.9005 46.8196 39.9964 46.6973 40.0625C46.5851 40.1235 46.459 40.1547 46.3189 40.1547C46.0157 40.1547 45.7851 40.05 45.6258 39.8394C45.5596 39.7522 45.5124 39.6451 45.4831 39.518C45.4602 39.4158 45.4487 39.2962 45.4487 39.1604V37.9991H45.7061V39.1566C45.7061 39.3921 45.7507 39.5728 45.8399 39.6974C45.9418 39.8407 46.101 39.9117 46.3189 39.9117C46.4896 39.9117 46.6323 39.8544 46.7469 39.741C46.8285 39.66 46.8858 39.5628 46.9177 39.4519C46.9444 39.3635 46.9572 39.2501 46.9572 39.1118V37.9991H47.2145V40.1036H46.9737ZM46.1367 37.7212L46.0144 37.4995L46.7495 37.0783L46.8667 37.3101L46.1367 37.7212Z" fill="#F09239"/>
<path id="Vector_33" d="M49.9091 39.4844C49.6913 39.9317 49.3575 40.1547 48.9052 40.1547C48.6046 40.1547 48.3498 40.05 48.1395 39.8395C47.9268 39.6264 47.821 39.3647 47.821 39.0545C47.821 38.7467 47.9281 38.4838 48.1421 38.267C48.3549 38.0527 48.6097 37.9456 48.9052 37.9456C49.1269 37.9456 49.3282 38.0066 49.5091 38.1275C49.6938 38.2533 49.8276 38.4215 49.9091 38.6346H49.625C49.4747 38.3368 49.2377 38.1873 48.9141 38.1873C48.6823 38.1873 48.4861 38.2695 48.3256 38.4352C48.1625 38.6009 48.0809 38.804 48.0809 39.0458C48.0809 39.29 48.1612 39.4956 48.3217 39.6625C48.4823 39.8295 48.6797 39.913 48.9141 39.913C49.2467 39.913 49.4836 39.7697 49.625 39.4844H49.9091Z" fill="#F09239"/>
<path id="Vector_34" d="M53.7312 39.4844C53.5133 39.9317 53.1795 40.1547 52.7272 40.1547C52.4266 40.1547 52.1718 40.05 51.9616 39.8395C51.7488 39.6264 51.6431 39.3647 51.6431 39.0545C51.6431 38.7467 51.7501 38.4838 51.9641 38.267C52.1769 38.0527 52.4317 37.9456 52.7272 37.9456C52.9489 37.9456 53.1502 38.0066 53.3311 38.1275C53.5159 38.2533 53.6496 38.4215 53.7312 38.6346H53.4471C53.2967 38.3368 53.0598 38.1873 52.7362 38.1873C52.5043 38.1873 52.3081 38.2695 52.1476 38.4352C51.9845 38.6009 51.903 38.804 51.903 39.0458C51.903 39.29 51.9832 39.4956 52.1438 39.6625C52.3043 39.8295 52.5017 39.913 52.7362 39.913C53.0687 39.913 53.3056 39.7697 53.4471 39.4844H53.7312Z" fill="#F09239"/>
<path id="Vector_35" d="M55.837 40.1036V39.7772H55.8294C55.7733 39.9005 55.6828 39.9965 55.5605 40.0625C55.4484 40.1235 55.3223 40.1547 55.1822 40.1547C54.8789 40.1547 54.6484 40.05 54.4891 39.8395C54.4229 39.7522 54.3757 39.6451 54.3464 39.518C54.3235 39.4158 54.312 39.2962 54.312 39.1604V37.9991H54.5694V39.1567C54.5694 39.3921 54.614 39.5728 54.7031 39.6974C54.8051 39.8407 54.9643 39.9117 55.1822 39.9117C55.3529 39.9117 55.4956 39.8544 55.6102 39.741C55.6918 39.66 55.7491 39.5628 55.7809 39.452C55.8077 39.3635 55.8204 39.2501 55.8204 39.1118V37.9991H56.0778V40.1036H55.837ZM55.5542 37.3948C55.5452 37.4085 55.5312 37.426 55.5121 37.4471L55.4892 37.4733L55.4153 37.5481C55.4013 37.5655 55.3873 37.5842 55.3733 37.6041C55.3516 37.6378 55.3389 37.6926 55.335 37.7674H55.1057V37.7163C55.1057 37.6527 55.1223 37.5904 55.1567 37.5306C55.1669 37.5132 55.1822 37.4908 55.2051 37.4633C55.2153 37.4521 55.2306 37.4359 55.2522 37.4148L55.3006 37.3662C55.3159 37.3487 55.3312 37.3313 55.344 37.3138C55.3631 37.2864 55.3733 37.2553 55.3733 37.2216C55.3733 37.1693 55.358 37.1282 55.3261 37.097C55.2917 37.0634 55.2548 37.0459 55.2166 37.0459C55.1618 37.0459 55.1172 37.0721 55.0828 37.1244C55.0713 37.1431 55.0624 37.1643 55.0599 37.188C55.0573 37.2017 55.056 37.2403 55.056 37.3026H54.8242V37.2291C54.8242 37.1282 54.8649 37.0372 54.9452 36.9587C55.0191 36.8877 55.1121 36.8516 55.2204 36.8516C55.3325 36.8516 55.4229 36.8864 55.4917 36.9562C55.5656 37.0322 55.6039 37.1219 55.6039 37.2229C55.6051 37.2827 55.5886 37.34 55.5542 37.3948Z" fill="#F09239"/>
<path id="Vector_36" d="M58.5673 40.1036V39.7335H58.5596C58.3813 40.0139 58.1201 40.1547 57.7749 40.1547C57.4716 40.1547 57.2143 40.0488 57.0054 39.8369C56.7951 39.6251 56.6907 39.361 56.6907 39.0457C56.6907 38.733 56.7964 38.4701 57.0092 38.2583C57.2194 38.0489 57.4742 37.9443 57.7749 37.9443C58.1265 37.9443 58.3889 38.0851 58.5596 38.3667H58.5673V37.9979H58.8272V40.1023H58.5673V40.1036ZM58.352 38.4452C58.194 38.2732 58.0029 38.1872 57.7761 38.1872C57.5366 38.1872 57.3391 38.2695 57.1837 38.4352C57.027 38.6009 56.9493 38.8077 56.9493 39.0569C56.9493 39.3024 57.0283 39.5068 57.185 39.67C57.3417 39.832 57.5392 39.9129 57.7761 39.9129C58.0029 39.9129 58.1953 39.8282 58.352 39.6588C58.5074 39.4918 58.5838 39.2899 58.5838 39.0532C58.5838 38.8165 58.5061 38.6146 58.352 38.4452Z" fill="#F09239"/>
<path id="Vector_37" d="M61.221 38.2421V40.1048H60.9636V38.2421H60.5381V37.9991H60.9636V37.2552H61.221V37.9991H61.7038V38.2421H61.221Z" fill="#F09239"/>
<path id="Vector_38" d="M63.6887 40.1036V38.9461C63.6887 38.8339 63.6747 38.7293 63.6454 38.6346C63.6136 38.5237 63.5626 38.434 63.4964 38.3679C63.374 38.2471 63.2275 38.1873 63.0581 38.1873C62.8874 38.1873 62.7409 38.2471 62.6186 38.3679C62.5523 38.4327 62.5039 38.5199 62.4708 38.6271C62.4428 38.7193 62.4287 38.819 62.4287 38.9261V40.1048H62.1714V37.2552H62.4287V38.2682H62.4364C62.5701 38.0527 62.7765 37.9455 63.0581 37.9455C63.3396 37.9455 63.5601 38.039 63.7193 38.2271C63.8709 38.4078 63.9461 38.647 63.9461 38.9473V40.1048H63.6887V40.1036Z" fill="#F09239"/>
<path id="Vector_39" d="M66.1527 40.1036V39.7771H66.145C66.089 39.9005 65.9985 39.9964 65.8762 40.0625C65.7641 40.1235 65.638 40.1547 65.4978 40.1547C65.1946 40.1547 64.964 40.05 64.8048 39.8394C64.7385 39.7522 64.6914 39.6451 64.6621 39.518C64.6392 39.4158 64.6277 39.2962 64.6277 39.1604V37.9991H64.885V39.1566C64.885 39.3921 64.9296 39.5728 65.0188 39.6974C65.1207 39.8407 65.28 39.9117 65.4978 39.9117C65.6685 39.9117 65.8112 39.8544 65.9259 39.741C66.0074 39.66 66.0648 39.5628 66.0966 39.4519C66.1234 39.3635 66.1361 39.2501 66.1361 39.1118V37.9991H66.3935V40.1036H66.1527ZM65.3144 37.7212L65.1921 37.4995L65.9272 37.0783L66.0444 37.3101L65.3144 37.7212Z" fill="#F09239"/>
<path id="Vector_40" d="M70.3161 39.4844C70.0983 39.9317 69.7645 40.1547 69.3122 40.1547C69.0115 40.1547 68.7567 40.05 68.5465 39.8395C68.3338 39.6264 68.228 39.3647 68.228 39.0545C68.228 38.7467 68.335 38.4838 68.5491 38.267C68.7618 38.0527 69.0166 37.9456 69.3122 37.9456C69.5339 37.9456 69.7352 38.0066 69.9161 38.1275C70.1008 38.2533 70.2346 38.4215 70.3161 38.6346H70.032C69.8817 38.3368 69.6447 38.1873 69.3211 38.1873C69.0893 38.1873 68.8931 38.2695 68.7325 38.4352C68.5695 38.6009 68.4879 38.804 68.4879 39.0458C68.4879 39.29 68.5682 39.4956 68.7287 39.6625C68.8892 39.8295 69.0867 39.913 69.3211 39.913C69.6536 39.913 69.8906 39.7697 70.032 39.4844H70.3161Z" fill="#F09239"/>
<path id="Vector_41" d="M72.6655 38.3119V40.1048H72.4222V39.7784H72.4146C72.3585 39.9017 72.268 39.9977 72.1457 40.0637C72.0336 40.1248 71.9075 40.1559 71.7674 40.1559C71.4642 40.1559 71.2336 40.0513 71.0743 39.8407C71.0081 39.7535 70.9609 39.6463 70.9316 39.5192C70.9087 39.4171 70.8972 39.2974 70.8972 39.1616V38.0004H71.1546V39.1579C71.1546 39.3934 71.1992 39.574 71.2883 39.6986C71.3903 39.8419 71.5495 39.913 71.7674 39.913C71.9381 39.913 72.0808 39.8556 72.1954 39.7423C72.277 39.6613 72.3343 39.5641 72.3662 39.4532C72.3929 39.3647 72.4056 39.2513 72.4056 39.113V38.0004H72.663V38.0627C72.6655 38.0602 72.6681 38.0577 72.6719 38.0552C72.7152 38.019 72.7394 37.9742 72.7458 37.9219H72.6362V37.5829H72.9535V37.9318C72.9446 37.9929 72.9305 38.044 72.9114 38.0851C72.891 38.1262 72.8681 38.1598 72.8388 38.1873C72.8108 38.2147 72.7853 38.2358 72.7636 38.252C72.742 38.2682 72.7089 38.2882 72.6655 38.3131V38.3119Z" fill="#F09239"/>
<path id="Vector_42" d="M74.8772 40.1036V38.9461C74.8772 38.8339 74.8632 38.7293 74.8339 38.6346C74.802 38.5237 74.7511 38.434 74.6848 38.3679C74.5625 38.2471 74.416 38.1873 74.2466 38.1873C74.0759 38.1873 73.9293 38.2471 73.807 38.3679C73.7408 38.4327 73.6911 38.5199 73.6593 38.6271C73.6312 38.7193 73.6172 38.819 73.6172 38.9261V40.1048H73.3599V38.0004H73.6172V38.2695H73.6249C73.7586 38.0539 73.965 37.9468 74.2466 37.9468C74.5281 37.9468 74.7485 38.0402 74.9078 38.2284C75.0594 38.409 75.1346 38.6483 75.1346 38.9486V40.1061H74.8772V40.1036Z" fill="#F09239"/>
<path id="Vector_43" d="M77.8112 39.7734C77.8112 39.8531 77.8099 39.9217 77.8061 39.9777C77.801 40.05 77.7933 40.116 77.7831 40.1746C77.7551 40.3154 77.7042 40.4375 77.6277 40.5409C77.4392 40.8001 77.1716 40.9297 76.8264 40.9297C76.5792 40.9297 76.3639 40.8636 76.1817 40.7303C75.9919 40.5933 75.8632 40.4026 75.7944 40.1572H76.0683C76.2034 40.5098 76.4544 40.6867 76.8226 40.6867C77.0481 40.6867 77.2277 40.6144 77.3589 40.4712C77.4889 40.3291 77.5538 40.141 77.5538 39.9042V39.7186H77.5462C77.4748 39.8594 77.3653 39.9678 77.2162 40.045C77.0786 40.1173 76.9296 40.1547 76.7678 40.1547C76.4747 40.1547 76.2263 40.0488 76.0225 39.8369C75.8161 39.6239 75.7129 39.3647 75.7129 39.0607C75.7129 38.7542 75.8148 38.4913 76.0187 38.2732C76.2238 38.0539 76.4735 37.9443 76.7678 37.9443C77.1092 37.9443 77.3678 38.0876 77.5462 38.3741H77.5538V37.9979H77.8112V39.7734ZM77.3372 38.4464C77.1805 38.2732 76.992 38.1872 76.7678 38.1872C76.5435 38.1872 76.3537 38.2732 76.1983 38.4464C76.0454 38.6146 75.969 38.8165 75.969 39.0532C75.969 39.2875 76.0454 39.4881 76.1983 39.655C76.3537 39.827 76.5435 39.9129 76.7678 39.9129C76.9882 39.9129 77.178 39.827 77.3347 39.655C77.4901 39.4868 77.5666 39.2862 77.5666 39.0532C77.5678 38.819 77.4914 38.6171 77.3372 38.4464Z" fill="#F09239"/>
</g>
</g>
</g>
<defs>
<linearGradient id="paint0_linear_395_1173" x1="-65.8301" y1="-86.3734" x2="258.097" y2="210.067" gradientUnits="userSpaceOnUse">
<stop offset="2.06629e-07" stop-color="#F4D052"/>
<stop offset="0.7339" stop-color="#F49245"/>
</linearGradient>
<linearGradient id="paint1_linear_395_1173" x1="-62.4446" y1="-90.0706" x2="261.472" y2="206.376" gradientUnits="userSpaceOnUse">
<stop offset="2.06629e-07" stop-color="#F4D052"/>
<stop offset="0.7339" stop-color="#F49245"/>
</linearGradient>
<linearGradient id="paint2_linear_395_1173" x1="-46.5555" y1="-107.499" x2="277.374" y2="189.088" gradientUnits="userSpaceOnUse">
<stop offset="2.06629e-07" stop-color="#F4D052"/>
<stop offset="0.7339" stop-color="#F49245"/>
</linearGradient>
<linearGradient id="paint3_linear_395_1173" x1="-46.4699" y1="-107.667" x2="277.473" y2="189.08" gradientUnits="userSpaceOnUse">
<stop offset="2.06629e-07" stop-color="#F4D052"/>
<stop offset="0.7339" stop-color="#F49245"/>
</linearGradient>
<linearGradient id="paint4_linear_395_1173" x1="-46.5555" y1="-107.499" x2="277.374" y2="189.088" gradientUnits="userSpaceOnUse">
<stop offset="2.06629e-07" stop-color="#F4D052"/>
<stop offset="0.7339" stop-color="#F49245"/>
</linearGradient>
<linearGradient id="paint5_linear_395_1173" x1="-46.4699" y1="-107.667" x2="277.473" y2="189.08" gradientUnits="userSpaceOnUse">
<stop offset="2.06629e-07" stop-color="#F4D052"/>
<stop offset="0.7339" stop-color="#F49245"/>
</linearGradient>
<linearGradient id="paint6_linear_395_1173" x1="-46.4699" y1="-107.667" x2="277.473" y2="189.08" gradientUnits="userSpaceOnUse">
<stop offset="2.06629e-07" stop-color="#F4D052"/>
<stop offset="0.7339" stop-color="#F49245"/>
</linearGradient>
<linearGradient id="paint7_linear_395_1173" x1="-46.5555" y1="-107.5" x2="277.375" y2="189.088" gradientUnits="userSpaceOnUse">
<stop offset="2.06629e-07" stop-color="#F4D052"/>
<stop offset="0.7339" stop-color="#F49245"/>
</linearGradient>
<linearGradient id="paint8_linear_395_1173" x1="-44.4705" y1="-109.881" x2="177.057" y2="93.0957" gradientUnits="userSpaceOnUse">
<stop offset="2.06629e-07" stop-color="#F4D052"/>
<stop offset="0.7339" stop-color="#F49245"/>
</linearGradient>
</defs>
</svg>
